<svg width="100" height="100" viewBox="0 0 100 100" fill="none" xmlns="http://www.w3.org/2000/svg">
<rect width="100" height="100" fill="#0D1B27"/>
<path d="M8.8125 37.098V28.8182H44.4652V37.098H31.6747V71H21.6236V37.098H8.8125ZM61.3132 28.8182H71.3643V57.983C71.3506 60.7154 70.6984 63.1046 69.4077 65.1506C68.117 67.1828 66.3319 68.7618 64.0526 69.8878C61.7869 71.0137 59.1643 71.5767 56.1847 71.5767C53.5483 71.5767 51.1522 71.1167 48.9964 70.1967C46.8544 69.2768 45.1449 67.8487 43.8679 65.9126C42.6046 63.9766 41.9799 61.4981 41.9936 58.4773H52.1477C52.1889 59.562 52.3949 60.4889 52.7656 61.2578C53.1501 62.013 53.6787 62.5829 54.3516 62.9673C55.0244 63.3518 55.8277 63.544 56.7614 63.544C57.7363 63.544 58.5601 63.3381 59.233 62.9261C59.9058 62.5005 60.4138 61.8757 60.7571 61.0518C61.1141 60.228 61.2995 59.205 61.3132 57.983V28.8182Z" fill="#EA3778"/>
<path d="M83.4288 71.5973C81.9458 71.5973 80.6757 71.0755 79.6184 70.032C78.5749 68.9884 78.06 67.7251 78.0737 66.2422C78.06 64.7867 78.5749 63.544 79.6184 62.5142C80.6757 61.4706 81.9458 60.9489 83.4288 60.9489C84.8294 60.9489 86.0652 61.4706 87.1362 62.5142C88.2209 63.544 88.7702 64.7867 88.7839 66.2422C88.7702 67.2308 88.5093 68.1302 88.0012 68.9403C87.5069 69.7505 86.8547 70.3958 86.0446 70.8764C85.2482 71.357 84.3762 71.5973 83.4288 71.5973Z" fill="#F5F7F5"/>
</svg>
